<?xml version="1.0" encoding="UTF-8"?>
<!DOCTYPE svg PUBLIC "-//W3C//DTD SVG 1.1//EN" "http://www.w3.org/Graphics/SVG/1.1/DTD/svg11.dtd">
<!-- Creator: CorelDRAW -->
<svg xmlns="http://www.w3.org/2000/svg" xml:space="preserve" width="1.68506in" height="0.359945in" version="1.1" style="shape-rendering:geometricPrecision; text-rendering:geometricPrecision; image-rendering:optimizeQuality; fill-rule:evenodd; clip-rule:evenodd"
viewBox="0 0 287.5 61.41"
 xmlns:xlink="http://www.w3.org/1999/xlink"
 xmlns:xodm="http://www.corel.com/coreldraw/odm/2003">
 <defs>
  <style type="text/css">
   <![CDATA[
    .fil0 {fill:white}
    .fil1 {fill:white;fill-rule:nonzero}
   ]]>
  </style>
 </defs>
 <g id="Layer_x0020_1">
  <metadata id="CorelCorpID_0Corel-Layer"/>
  <path class="fil0" d="M-0 34.65c1.15,2.3 8.18,7.54 11.29,9.67 12.85,8.78 31.87,14.09 48.13,15.88 33.18,3.66 63.74,-1.34 94.62,-9.28 39.8,-10.23 83.92,-13.14 124.48,-4.89 2.98,0.61 6.04,1.73 8.98,2.04l-1.67 -1.07c-0.59,-0.23 -1.24,-0.44 -1.88,-0.68 -1.35,-0.51 -2.68,-0.97 -4.01,-1.43 -2.76,-0.96 -5.48,-1.76 -8.25,-2.61 -17.26,-5.33 -36.24,-8.28 -54.68,-9.53 -27.43,-1.86 -52.79,1.56 -77.18,7.8 -11.2,2.87 -22.37,6.68 -34.12,8.62 -2.99,0.49 -5.89,1.14 -8.88,1.68 -8.51,1.56 -20.96,2.46 -29.75,2.65 -13.63,0.29 -26.54,-1.3 -38.4,-4.51 -8.26,-2.24 -18.98,-6.76 -25.73,-11.99 -1.09,-0.84 -1.88,-1.79 -2.96,-2.35z"/>
  <path class="fil0" d="M64.52 49.29c11.37,0 20.55,-0.81 31.59,-2.63 4.61,-0.76 9.04,-1.71 13.54,-2.73 2.19,-0.5 4.32,-1.01 6.42,-1.58 1.79,-0.48 4.82,-0.98 6.2,-1.92 0.04,-0.03 0.13,-0.1 0.19,-0.15l-25.39 2.93c-21.59,2.26 -50.61,2.84 -71.33,-2.83 -4.04,-1.1 -6.95,-2.51 -10.31,-3.73 4.4,2.44 2.98,2.38 9.78,5.25 11.25,4.75 26.83,7.4 39.31,7.4z"/>
  <path class="fil0" d="M174.99 53.75c0.71,0.44 22.01,-2.6 24.78,-2.85 19.65,-1.72 35.02,-3.04 55.01,-2.02 7.44,0.38 15.01,0.9 22.34,2.53 0.75,0.17 2.39,0.59 3.11,0.09 -33.12,-10.23 -73.17,-7.35 -105.24,2.24z"/>
  <path class="fil1" d="M14.58 23.59c4.99,0 7.84,-2.17 10.01,-5.12l-4.73 -3.37c-1.39,1.65 -2.75,2.75 -5.12,2.75 -3.18,0 -5.41,-2.66 -5.41,-6.06l0 -0.07c0,-3.3 2.24,-6.03 5.41,-6.03 2.2,0 3.66,1.07 4.96,2.66l4.73 -3.66c-1.98,-2.75 -5.02,-4.7 -9.62,-4.7 -6.87,0 -11.92,5.18 -11.92,11.79l0 0.06c0,6.77 5.22,11.73 11.7,11.73z"/>
  <path id="_1" class="fil1" d="M25.33 23.13l6.58 0 1.62 -4.08 8.78 0 1.62 4.08 6.74 0 -9.65 -22.84 -6.06 0 -9.62 22.84zm10.04 -8.97l2.56 -6.41 2.53 6.41 -5.09 0z"/>
  <path id="_2" class="fil1" d="M52.87 23.13l6.29 0 0 -6.48 3.14 0c5.6,0 9.72,-2.82 9.72,-8.2l0 -0.07c0,-5.02 -3.69,-7.94 -9.4,-7.94l-9.75 0 0 22.68zm6.29 -11.4l0 -5.99 2.98 0c2.24,0 3.63,1 3.63,2.95l0 0.06c0,1.81 -1.39,2.98 -3.6,2.98l-3.01 0z"/>
  <polygon id="_3" class="fil1" points="74.67,23.13 93.08,23.13 93.08,17.79 80.9,17.79 80.9,14.19 91.78,14.19 91.78,9.23 80.9,9.23 80.9,5.77 92.91,5.77 92.91,0.45 74.67,0.45 "/>
  <polygon id="_4" class="fil1" points="106.04,23.13 124.44,23.13 124.44,17.79 112.26,17.79 112.26,14.19 123.14,14.19 123.14,9.23 112.26,9.23 112.26,5.77 124.28,5.77 124.28,0.45 106.04,0.45 "/>
  <polygon id="_5" class="fil1" points="141.64,0.45 137.56,6.84 133.58,0.45 126.35,0.45 133.8,11.6 126.03,23.13 133.09,23.13 137.46,16.26 141.8,23.13 149.03,23.13 141.25,11.5 148.71,0.45 "/>
  <path id="_6" class="fil1" d="M151.39 23.13l6.29 0 0 -6.48 3.14 0c5.6,0 9.72,-2.82 9.72,-8.2l0 -0.07c0,-5.02 -3.69,-7.94 -9.4,-7.94l-9.75 0 0 22.68zm6.29 -11.4l0 -5.99 2.98 0c2.24,0 3.63,1 3.63,2.95l0 0.06c0,1.81 -1.39,2.98 -3.6,2.98l-3.01 0z"/>
  <polygon id="_7" class="fil1" points="173.2,23.13 190.47,23.13 190.47,17.63 179.48,17.63 179.48,0.45 173.2,0.45 "/>
  <path id="_8" class="fil1" d="M203.33 23.59c7,0 12.25,-5.28 12.25,-11.79l0 -0.07c0,-6.48 -5.18,-11.73 -12.18,-11.73 -7,0 -12.25,5.28 -12.25,11.79l0 0.06c0,6.48 5.18,11.73 12.18,11.73zm0.07 -5.67c-3.47,0 -5.83,-2.88 -5.83,-6.12l0 -0.07c0,-3.27 2.3,-6.06 5.77,-6.06 3.47,0 5.8,2.82 5.8,6.12l0 0.06c0,3.27 -2.3,6.06 -5.73,6.06z"/>
  <path id="_9" class="fil1" d="M218.82 23.13l6.29 0 0 -6.87 2.79 0 4.57 6.87 7.23 0 -5.41 -7.91c2.85,-1.2 4.67,-3.5 4.67,-7l0 -0.06c0,-2.17 -0.68,-3.95 -2.01,-5.28 -1.52,-1.52 -3.89,-2.43 -7.39,-2.43l-10.72 0 0 22.68zm6.29 -11.79l0 -5.48 4.15 0c2.07,0 3.4,0.91 3.4,2.72l0 0.06c0,1.65 -1.26,2.69 -3.37,2.69l-4.18 0z"/>
  <polygon id="_10" class="fil1" points="242.11,23.13 260.51,23.13 260.51,17.79 248.33,17.79 248.33,14.19 259.22,14.19 259.22,9.23 248.33,9.23 248.33,5.77 260.35,5.77 260.35,0.45 242.11,0.45 "/>
  <path id="_11" class="fil1" d="M263.75 23.13l6.29 0 0 -6.87 2.79 0 4.57 6.87 7.23 0 -5.41 -7.91c2.85,-1.2 4.67,-3.5 4.67,-7l0 -0.06c0,-2.17 -0.68,-3.95 -2.01,-5.28 -1.52,-1.52 -3.89,-2.43 -7.39,-2.43l-10.72 0 0 22.68zm6.29 -11.79l0 -5.48 4.15 0c2.07,0 3.4,0.91 3.4,2.72l0 0.06c0,1.65 -1.26,2.69 -3.37,2.69l-4.18 0z"/>
 </g>
</svg>
